<?xml version="1.0" encoding="utf-8"?>
<!-- Generator: Adobe Illustrator 19.0.0, SVG Export Plug-In . SVG Version: 6.00 Build 0)  -->
<svg xmlns="http://www.w3.org/2000/svg" xmlns:xlink="http://www.w3.org/1999/xlink" version="1.1" id="Layer_1" x="0px" y="0px" viewBox="0 0 1096 780" style="enable-background:new 0 0 1096 780;" xml:space="preserve">
<style type="text/css">
	.st0{fill:#00AEFF;}
	.st1{fill:#8097C1;}
	.st2{fill:#224B79;}
	.st3{fill:#231F20;}
	.st4{fill:#0F1719;}
	.st5{fill:#183C64;}
	.st6{fill:#ED1C24;}
	.st7{fill:#FFFFFF;}
	.st8{fill:#E5E7E8;}
	.st9{fill:#F4CD28;}
	.st10{fill:#A7A9AC;}
	.st11{fill:#B49004;}
	.st12{fill:#F1F2F2;}
	.st13{fill:#7189A3;}
	.st14{fill:#5A6E83;}
	.st15{fill:#242B2D;}
	.st16{fill:#FFF200;}
	.st17{fill:#424240;}
	.st18{fill:#3B3C3A;}
	.st19{fill:#383937;}
	.st20{fill:#E6E7E8;}
	.st21{fill:#808285;}
	.st22{fill:#9F1D1D;}
	.st23{fill:#1F2628;}
	.st24{fill:#181F20;}
	.st25{fill:#6B0813;}
	.st26{fill:#85031D;}
</style>
<g>
	<g>
		<g>
			<g>
				<g>
					
				</g>
			</g>
		</g>
	</g>
	<g>
		<g>
			<path class="st1" d="M893.2,105.9H759.8l8.1-42.7C782.1,33,893.2,33.5,893.2,33.5h0c0,0,111.2-0.5,125.3,29.6l8.1,42.7H893.2"/>
		</g>
		<g>
			<path class="st1" d="M1010.9,85.9c0,0,23.6,2.1,23.3,23.8v57.7v57.7c0.3,21.8-23.3,23.8-23.3,23.8V85.9z"/>
		</g>
		<g>
			<path class="st1" d="M775.5,85.9c0,0-23.6,2.1-23.3,23.8v57.7v57.7c-0.3,21.8,23.3,23.8,23.3,23.8V85.9z"/>
		</g>
		<g>
			<path class="st1" d="M1010.9,490.2c0,0,23.6,2.1,23.3,23.8v57.7v57.7c0.3,21.7-23.3,23.8-23.3,23.8V490.2z"/>
		</g>
		<g>
			<path class="st1" d="M775.5,490.2c0,0-23.6,2.1-23.3,23.8v57.7v57.7c-0.3,21.7,23.3,23.8,23.3,23.8V490.2z"/>
		</g>
		<g>
			<path class="st2" d="M1024.3,698.6V236.9V100.4c-2.6-22-9-31.4-9-31.4c-20-27.9-121.7-25.4-122-25.4h0h0h0     c-0.3,0-102-2.5-122,25.4c0,0-6.4,9.4-9,31.4v136.5v461.8c0,0-0.7,21.2,9.2,35.9c0.2,0.2,7,6.5,30.1,6.5h91.7h0h91.7     c23.2,0,29.9-6.3,30.1-6.5C1024.9,719.9,1024.3,698.6,1024.3,698.6z"/>
		</g>
		<g>
			<path class="st1" d="M893.2,741.1L893.2,741.1h-91.7c-23.2,0-29.9-6.3-30.1-6.5c5.3,8,13.7,14,26.9,13.8h94.9h0h94.9     c13.2,0.2,21.6-5.9,26.9-13.8c-0.2,0.2-7,6.5-30.1,6.5H893.2z"/>
		</g>
		<g>
			<polygon class="st3" points="1013.4,561.2 990.1,522.7 990.1,322.5 1009.4,237.1 1012.4,237.8 993.2,323 993.2,521.8      1014.7,557.2 1023.6,553.1 1024.9,555.9    "/>
		</g>
		<g>
			<polygon class="st3" points="773,561.2 761.5,555.9 762.8,553.1 771.8,557.2 793.2,521.8 793.2,323 774,237.8 777,237.1      796.3,322.9 796.3,522.7    "/>
		</g>
		<g>
			<path class="st4" d="M965.5,411.2c0,8.7-7,15.7-15.7,15.7h-114c-8.7,0-15.7-7-15.7-15.7v-60.9c0-8.7,7-15.7,15.7-15.7h114     c8.7,0,15.7,7,15.7,15.7V411.2z"/>
		</g>
		<g>
			<polyline class="st4" points="1012.5,262.7 999.1,324 999.1,412.9 999.1,521.5 1014,546.7 1014,266.2    "/>
		</g>
		<g>
			<polygon class="st4" points="999.1,554.5 999.1,698.3 1015.9,711.2 1015.9,590.2    "/>
		</g>
		<g>
			<polygon class="st4" points="893.2,735.2 795.5,735.2 811.7,723 893.2,723 974.7,723 990.8,735.2    "/>
		</g>
		<g>
			<path class="st3" d="M1001.8,221.9l-1.8-2.6c2.8-1.9,4.8-23.9,5-43.1l-1.4-115.9l3.1,0l1.4,115.9     C1008,186,1007.2,218.1,1001.8,221.9z"/>
		</g>
		<g>
			<polygon class="st3" points="1010.7,239 1005.4,237.3 1006.4,234.3 1011,235.8 1024.1,234.3 1024.4,237.4    "/>
		</g>
		<g>
			<polygon class="st3" points="999.4,415.2 991.6,415.2 991.6,412.1 998.8,412.1 1013.7,406 1024,404 1024.6,407.1 1014.5,409         "/>
		</g>
		<g>
			<rect x="956.4" y="446.4" class="st1" width="9.4" height="239.7"/>
		</g>
		<g>
			<rect x="909.5" y="446.4" class="st1" width="9.4" height="239.7"/>
		</g>
		<g>
			<rect x="862.6" y="446.4" class="st1" width="9.4" height="239.7"/>
		</g>
		<g>
			<rect x="815.7" y="446.4" class="st1" width="9.4" height="239.7"/>
		</g>
		<g>
			<path class="st3" d="M1015.8,733.1c-32.9-25.2-32.7-37.8-32.4-39.9V317.1h3.1v376.5l0,0.2c0,0.1-1.4,12,31.2,36.9L1015.8,733.1z"/>
		</g>
		<g>
			<path class="st5" d="M1014,264.1c0,0,3.3-7.1,14.7-1.4c0,0,21.4,9.6,21.4,19.7c0,0,0.2,7.5-6.7,4.3l-22.2-11v-3.3L1014,264.1z"/>
		</g>
		<g>
			<polyline class="st4" points="773.9,262.7 787.3,324 787.3,412.9 787.3,521.5 772.4,546.7 772.4,266.2    "/>
		</g>
		<g>
			<polygon class="st4" points="787.3,554.5 787.3,698.3 770.5,711.2 770.5,590.2    "/>
		</g>
		<g>
			<path class="st3" d="M784.7,221.8c-5.5-3.8-6.3-35.8-6.4-45.6l1.4-115.9l3.1,0l-1.4,115.9c0.2,19.1,2.2,41,5,43L784.7,221.8z"/>
		</g>
		<g>
			<path class="st3" d="M1005.8,196.7c-0.6-0.1-64.3-6.7-112.6-6.7c-48.3,0-111.9,6.6-112.6,6.7l-0.3-3.1     c0.6-0.1,64.4-6.7,112.9-6.7c48.5,0,112.2,6.6,112.9,6.7L1005.8,196.7z"/>
		</g>
		<g>
			<path class="st5" d="M985.2,52.4c0,0,7.2,81.2,8,111.5c0,0,1.8,13.4-8.5,13.2c0,0-54.7-4.2-91.5-4c-36.8-0.1-91.5,4-91.5,4     c-10.2,0.2-8.5-13.2-8.5-13.2c0.8-30.3,8-111.5,8-111.5l10-2.4c0,0-13.3,77.4-14.1,107.7c0,0-1.8,13.4,8.5,13.2     c0,0,50.9-3.6,87.6-3.5c36.8-0.1,87.6,3.5,87.6,3.5c10.2,0.2,8.5-13.2,8.5-13.2C988.5,127.5,975.2,50,975.2,50L985.2,52.4z"/>
		</g>
		<g>
			<polygon class="st3" points="775.7,239 762,237.4 762.3,234.3 775.4,235.8 780.2,234.3 781.1,237.4    "/>
		</g>
		<g>
			<polygon class="st3" points="794.8,415.2 786.7,415.1 771.9,409 761.9,407.1 762.4,404 773,406 787.6,412.1 794.8,412.1    "/>
		</g>
		<g>
			<path class="st3" d="M770.7,733.1l-1.9-2.5c32.6-24.9,31.2-36.8,31.2-36.9l0-0.3V317.1h3.1v376.2     C803.3,695.4,803.5,708,770.7,733.1z"/>
		</g>
		<g>
			<rect x="787.3" y="692.4" class="st3" width="211.8" height="3.1"/>
		</g>
		<g>
			<path class="st5" d="M772.4,264.1c0,0-3.3-7.1-14.7-1.4c0,0-21.4,9.6-21.4,19.7c0,0-0.2,7.5,6.7,4.3l22.2-11v-3.3L772.4,264.1z"/>
		</g>
		<g>
			<g>
				<polygon class="st2" points="893.2,43.5 893.2,43.5 893.2,43.5     "/>
			</g>
			<g>
				<polygon class="st3" points="893.2,45.1 893.2,45.1 893.2,41.9     "/>
			</g>
		</g>
		<g>
			<path class="st6" d="M918.4,720.1c0,1.6-1.3,2.9-2.9,2.9H871c-1.6,0-2.9-1.3-2.9-2.9l0,0c0-1.6,1.3-3,2.9-3h44.4     C917,717.1,918.4,718.4,918.4,720.1L918.4,720.1z"/>
		</g>
		<g>
			<path class="st4" d="M893.2,197.5c0,0-123-2.8-112.6,40.7l12.7,55.4c0,0,1.8,12.3,18.9,8.1c0,0,38.5-7.9,81-7.9     c42.5,0,81,7.9,81,7.9c17,4.2,18.9-8.1,18.9-8.1l12.7-55.4C1016.2,194.7,893.2,197.5,893.2,197.5"/>
		</g>
	</g>
	<g>
		<g>
			<path class="st7" d="M679.9,301.1l17.1,20.2l5-25.6l-7.3-183.4l-13-33L650,59.7c-10-4.4-20.7-3.6-20.7-3.6s-10.8-0.8-20.7,3.6     l-31.7,19.6l-13,33l-7.2,179.6l4.8,29.4l17.1-20.2l14.7,79.4L560,365.6l1.9,5.6l27.4,12c0,0,12.4,6.4,40,6.4     c27.6,0,40-6.4,40-6.4l27.4-12l2.1-6.1l-33.5,15.4L679.9,301.1z"/>
		</g>
		<g>
			
				<rect x="669.3" y="80.4" transform="matrix(0.9809 0.1947 -0.1947 0.9809 31.7423 -128.5668)" class="st8" width="1.5" height="33.5"/>
		</g>
		<g>
			<path class="st4" d="M688.1,133.3l-8.1,123l-7.3,8.1c0,0-3.7-31.9,3.7-62.9L688.1,133.3z"/>
		</g>
		<g>
			
				<rect x="667" y="185.1" transform="matrix(0.9894 0.1455 -0.1455 0.9894 38.0899 -94.8817)" class="st8" width="1.5" height="55.7"/>
		</g>
		<g>
			<path class="st4" d="M629.2,366.5h-22.1l-11.6-18.1h-5.2c-7-41.8,7.4-80.8,7.4-80.8l14.7-8.6h16.9h16.9l14.7,8.6     c0,0,14.3,39.1,7.4,80.8h-5.3l-11.6,18.1H629.2z"/>
		</g>
		<g>
			<polygon class="st8" points="644.1,219.1 641.9,259 639.7,219.1    "/>
		</g>
		<g>
			
				<rect x="571.7" y="96.5" transform="matrix(0.194 0.981 -0.981 0.194 569.6984 -498.9721)" class="st8" width="33.5" height="1.5"/>
		</g>
		<g>
			<path class="st4" d="M570.4,133.3l8.1,123l7.3,8.1c0,0,3.7-31.9-3.7-62.9L570.4,133.3z"/>
		</g>
		<g>
			<polygon class="st8" points="680.2,306.2 672,264.8 645,248 613.5,248 586.5,264.8 578.3,306.2 573.5,253.2 578.3,253.2      578.3,254.7 575.1,254.7 578.8,295.9 585.1,263.9 613.1,246.5 645.4,246.5 673.3,263.9 679.7,295.9 683.4,254.7 680.2,254.7      680.2,253.2 685,253.2    "/>
		</g>
		<g>
			
				<rect x="562.7" y="212.2" transform="matrix(0.1521 0.9884 -0.9884 0.1521 711.2398 -403.1622)" class="st8" width="55.7" height="1.5"/>
		</g>
		<g>
			<path class="st8" d="M578.6,301.1l-17.1,20.2l-4.8-29.4l-0.5,12.6c0,0-3.3,27.8-1.1,46.4l5,14.7l33.3,14.8L578.6,301.1z"/>
		</g>
		<g>
			<path class="st8" d="M702.4,304.5l-0.4-8.8l-5,25.6l-17.1-20.2l-14.7,79.4l33.5-15.4l4.8-14.2     C705.7,332.3,702.4,304.5,702.4,304.5z"/>
		</g>
		<g>
			<polygon class="st8" points="618.8,219.1 616.6,259 614.4,219.1    "/>
		</g>
		<g>
			<polygon class="st6" points="669.5,379.8 669.5,381.6 692.3,371.6 692,369.7    "/>
			<path class="st6" d="M668.8,382.8v-3.4l23.7-10.7l0.7,3.4L668.8,382.8z M670.3,380.3v0.2l21.2-9.4l-0.1-0.4L670.3,380.3z"/>
		</g>
		<g>
			<polygon class="st6" points="588.4,379.8 588.4,381.6 565.6,371.6 566,369.7    "/>
			<path class="st6" d="M589.1,382.8L564.8,372l0.7-3.4l23.7,10.7V382.8z M566.4,371.1l21.2,9.4v-0.2l-21.2-9.5L566.4,371.1z"/>
		</g>
		<g>
			<path class="st9" d="M651.1,62.1l28.4,17.6l6.4,16.7c0,0-10.6,0.9-12.6-15.6L651.1,62.1z"/>
		</g>
		<g>
			<path class="st9" d="M607.4,62.1L579,79.7l-6.4,16.7c0,0,10.6,0.9,12.6-15.6L607.4,62.1z"/>
		</g>
		<g>
			<path class="st4" d="M629.2,179.3c-24,0.2-43.4,7.3-43.4,7.3l-11-57c18.3-27.4,54.4-25.4,54.4-25.4s36.1-2,54.4,25.4l-11,57     C672.7,186.6,653.2,179.5,629.2,179.3z"/>
		</g>
	</g>
	<g>
		<g>
			<path class="st9" d="M629.5,745h-11.3v1.6c-15.6-0.7-26.4-3.4-26.4-3.4c-50.5-11.4-28.7-99.4-28.7-99.4     c-5.3-49.4-0.2-125.5-0.2-125.5c-2.5-0.9-15.4,4.7-15.4,4.7c-0.1-6.6,10.7-13.9,10.7-13.9c-3.1-36,0-53.6,0-53.6     c5.9-50.5,71.3-46.3,71.3-46.3s65.3-4.2,71.3,46.3c0,0,3.1,17.6,0,53.6c0,0,10.8,7.4,10.7,13.9c0,0-12.8-5.6-15.4-4.7     c0,0,5.1,76.1-0.2,125.5c0,0,21.9,88-28.7,99.4c0,0-10.7,2.7-26.4,3.4V745H629.5z"/>
		</g>
		<g>
			<polygon class="st4" points="692.9,510.9 686.1,559.2 686.1,591.1 686.1,622.9 692.9,671.2    "/>
		</g>
		<g>
			<ellipse class="st10" cx="629.5" cy="419.1" rx="6.9" ry="3.3"/>
		</g>
		<g>
			<ellipse class="st10" cx="629.5" cy="732.5" rx="6.9" ry="3.3"/>
		</g>
		<g>
			<path class="st11" d="M675.2,658.5c-2.6-41.5,5.7-116.2,5.8-117l1.3,0.1c-0.1,0.8-8.4,75.3-5.8,116.8L675.2,658.5z"/>
		</g>
		<g>
			<path class="st6" d="M643.9,726.4c0,0.6-0.5,1.1-1.1,1.1h-26.6c-0.6,0-1.1-0.5-1.1-1.1l0,0c0-0.6,0.5-1.1,1.1-1.1h26.6     C643.4,725.3,643.9,725.8,643.9,726.4L643.9,726.4z"/>
		</g>
		<g>
			<path class="st11" d="M693.8,501l-0.2-1.3c4.8-0.6,4.9-19.9,3.9-32c-1.3-18.8-11.7-27.5-11.8-27.6l0.8-1     c0.4,0.4,11,9.1,12.3,28.5C699.1,470.9,701.3,500.1,693.8,501z"/>
		</g>
		<g>
			<path class="st11" d="M695.4,518.5c-0.7-3.2,0.2-6.2,0.7-7.4l-3.1-1.3l0-0.5c1.5-35.6-19.8-73.9-20.1-74.3     c-11.5-21-43.2-19.9-43.5-19.9c-0.4,0-32-1.1-43.5,19.9c-0.2,0.4-21.6,38.7-20.1,74.3l0,0.5l-3.1,1.3c0.5,1.3,1.4,4.3,0.7,7.4     l-1.3-0.3c0.8-3.7-0.9-7.2-0.9-7.2l-0.3-0.6l3.5-1.4c-1.3-35.9,20-74.2,20.3-74.6c11.9-21.7,44.4-20.5,44.7-20.5     c0.3,0,32.7-1.1,44.6,20.5c0.2,0.4,21.6,38.7,20.3,74.6l3.5,1.4l-0.3,0.6c0,0-1.7,3.6-0.9,7.2L695.4,518.5z"/>
		</g>
		<g>
			<polygon class="st4" points="566.2,510.9 573,559.2 573,591.1 573,622.9 566.2,671.2    "/>
		</g>
		<g>
			
				<ellipse transform="matrix(-0.8131 -0.5821 0.5821 -0.8131 622.7208 1643.8961)" class="st6" cx="575.3" cy="722" rx="10.9" ry="5.1"/>
		</g>
		<g>
			
				<ellipse transform="matrix(0.8131 -0.5821 0.5821 0.8131 -292.4776 532.9362)" class="st6" cx="683.8" cy="722" rx="10.9" ry="5.1"/>
		</g>
		<g>
			<path class="st11" d="M583.9,658.8l-1.3-0.1c2.6-41.4-6-116.3-6-117.1l1.3-0.2C577.9,542.3,586.5,617.3,583.9,658.8z"/>
		</g>
		<g>
			<path class="st11" d="M566.2,671.2c0,0,0.8,3,2.6,8.1c0.9,2.5,2.1,5.6,3.6,9.1c0.8,1.7,1.6,3.5,2.5,5.4c0.4,1,0.9,1.9,1.4,2.9     c0.5,1,1,2,1.5,3c2.2,4.1,4.7,8.4,7.8,12.6c3.1,4.3,6.8,8.5,11.1,12.3c4.3,3.8,9.4,7,15,9.2c5.6,2.3,11.7,3.4,17.8,3.4     c1.5-0.1,3.1-0.1,4.6-0.2c1.5-0.2,3-0.3,4.5-0.6c3-0.6,5.9-1.4,8.7-2.6c5.6-2.2,10.6-5.5,15-9.2c4.3-3.8,8-8,11.1-12.3     c3.1-4.3,5.7-8.6,7.8-12.6c1.1-2,2-4,2.9-5.9c0.9-1.9,1.8-3.7,2.5-5.4c1.5-3.4,2.7-6.5,3.6-9.1c1.8-5.1,2.6-8.1,2.6-8.1     s-0.6,3-2.1,8.2c-0.8,2.6-1.8,5.7-3.1,9.3c-0.7,1.8-1.4,3.6-2.3,5.6c-0.8,2-1.9,3.9-3,6c-2.2,4.1-4.8,8.5-7.9,12.8     c-3.2,4.3-6.9,8.6-11.3,12.5c-4.4,3.8-9.6,7.2-15.3,9.5c-2.9,1.2-5.9,2-8.9,2.6c-1.5,0.3-3.1,0.4-4.7,0.7     c-1.5,0.1-3.1,0.1-4.6,0.2c-6.3,0-12.6-1.2-18.3-3.5c-5.7-2.3-10.9-5.6-15.3-9.5c-4.4-3.9-8.1-8.2-11.3-12.5     c-3.2-4.3-5.8-8.7-7.9-12.8c-1.1-2.1-2.1-4.1-3-6c-0.8-2-1.6-3.8-2.3-5.6c-1.3-3.5-2.4-6.7-3.1-9.3     C566.7,674.3,566.2,671.2,566.2,671.2z"/>
		</g>
		<g>
			<path class="st11" d="M565.3,501c-7.6-0.9-5.3-30.1-5-33.4c1.3-19.4,11-28.1,11.4-28.5l0.9,1c-0.1,0.1-9.7,8.8-11,27.6     c-1,12.1-0.9,31.4,3.9,32L565.3,501z"/>
		</g>
		<g>
			
				<ellipse transform="matrix(0.8131 0.5821 -0.5821 0.8131 380.5813 -316.8596)" class="st12" cx="683.8" cy="434.3" rx="10.9" ry="5.1"/>
		</g>
		<g>
			
				<ellipse transform="matrix(-0.8131 0.5821 -0.5821 -0.8131 1295.802 452.572)" class="st12" cx="575.3" cy="434.3" rx="10.9" ry="5.1"/>
		</g>
		<g>
			<path class="st4" d="M629.5,535.1c-31.5,0.7-53.5,8.1-53.5,8.1c-0.7-18.4-6.8-51-6.8-51c15.4-28.4,60.3-28.1,60.3-28.1     s44.8-0.3,60.3,28.1c0,0-6.1,32.5-6.8,51C683,543.2,661,535.7,629.5,535.1z"/>
		</g>
		<g>
			<path class="st4" d="M629.5,722c-29.5,0.2-45.4-14.1-45.4-14.1l-1.8-50.3c11.2,4.8,47.1,5.5,47.1,5.5s35.9-0.7,47.1-5.5     l-1.8,50.3C674.9,707.9,659.1,722.2,629.5,722z"/>
		</g>
	</g>
	<g>
		<g>
			<path class="st13" d="M471.5,508.1l-6.6-60.6c0-0.1,0-0.2,0-0.2c-9.7-4.5-19.8-21.2-19.8-21.2s20.2,41.3,21.2,79.9     c-1-38.6-21.2-79.9-21.2-79.9c-16.3-13.2-39.8-13.2-40.3-13.2c-0.5,0-26.1,0-40.3,13.2c0,0-20.2,41.3-21.2,79.9     c1-38.6,21.2-79.9,21.2-79.9s-10.1,17.2-19.8,21.7l-6.6,60.4c0,0-10.1,153.7-3.9,202c1.8,5.4,6.2,8.2,6.2,8.2     c4.4,2.9,5.6-2.7,5.6-2.7l3.4-13.7l-0.4,10l2.8,4.6c5.6,10.5,23.4,6.7,23.4,6.7c4.6-2.8,8.9-2.6,8.9-2.6h20.6h0h20.6     c0,0,4.3-0.2,8.9,2.6c0,0,17.8,3.8,23.4-6.7l2.8-4.6l-0.4-10l3.4,13.7c0,0,1.2,5.6,5.6,2.7c0,0,4.4-2.9,6.2-8.2     C481.6,661.8,471.5,508.1,471.5,508.1z"/>
		</g>
		<g>
			<path class="st14" d="M420.7,421.6c1.1,2.4,2.1,4.9,3.1,7.3c0.3,0.6,0.5,1.2,0.7,1.8l0.6,1.9l1.3,3.8l5,15l0,0l0,0     c0.2,0.7,0.5,1.5,0.8,2.3c0.3,0.8,0.6,1.5,1,2.2c0.4,0.7,0.8,1.5,1.2,2.2c0.4,0.7,0.9,1.4,1.3,2.1c0.5,0.7,1,1.3,1.5,1.9     c0.5,0.6,1.1,1.2,1.7,1.8c0.6,0.6,1.2,1.1,1.8,1.6c0.6,0.5,1.3,1,2,1.5l1,0.7l1.1,0.6l2.2,1.3l4.3,2.5c0.7,0.4,1.4,0.9,2.1,1.4     l2.1,1.4c1.4,1,2.8,1.9,4.1,2.9c-1.5-0.7-3-1.4-4.6-2.2l-2.3-1.1c-0.8-0.4-1.5-0.7-2.2-1.2l-4.3-2.5l-2.2-1.3l-1.1-0.6l-1.1-0.7     c-0.7-0.5-1.4-1-2.1-1.5c-0.7-0.5-1.3-1.1-1.9-1.7c-0.6-0.6-1.2-1.2-1.7-1.9c-0.6-0.6-1.1-1.3-1.6-2c-0.5-0.7-1-1.4-1.4-2.2     c-0.4-0.7-0.9-1.5-1.2-2.2c-0.4-0.8-0.7-1.5-1.1-2.3c-0.3-0.8-0.6-1.6-0.9-2.5l0,0l-5-15l-1.3-3.8l-0.6-1.9     c-0.2-0.6-0.4-1.3-0.5-1.9C422,426.8,421.3,424.2,420.7,421.6z"/>
		</g>
		<g>
			<path class="st15" d="M468,514.7c0,0-6.6,15.4-8.2,54.6c0,0-2,91.2,1.6,104.8l6.6,12.1C468,686.1,476,592.7,468,514.7z"/>
		</g>
		<g>
			<ellipse class="st14" cx="428.1" cy="707.5" rx="1.5" ry="10.8"/>
		</g>
		<g>
			<ellipse class="st14" cx="451.8" cy="704.1" rx="1.3" ry="9.3"/>
		</g>
		<g>
			<path class="st14" d="M404.8,679.6c-2.6,0-3.8-1.2-3.8-1.2v-11.4c0.2-5.6,3.8-5.6,3.8-5.6s3.5,0,3.8,5.6v11.4     C408.5,678.4,407.4,679.6,404.8,679.6z"/>
		</g>
		<g>
			<path class="st14" d="M453.4,653.9c0,0,0.1,0.6,0.2,1.7c0,0.5,0.1,1.2,0.2,1.9c0,0.4,0.1,0.8,0.1,1.2c0,0.4-0.1,0.8-0.1,1.3     c-0.2,3.6-0.5,8.4-0.8,13.2c-0.3,4.8-0.6,9.6-0.8,13.2c0,0.4,0,0.9-0.1,1.3c-0.1,0.4-0.2,0.8-0.2,1.2c-0.2,0.7-0.3,1.4-0.4,1.9     c-0.2,1-0.4,1.6-0.4,1.6s-0.1-0.6-0.2-1.7c0-0.5-0.1-1.2-0.2-1.9c0-0.4-0.1-0.8-0.1-1.2c0-0.4,0.1-0.8,0.1-1.3     c0.2-3.6,0.5-8.4,0.8-13.2c0.3-4.8,0.6-9.6,0.8-13.2c0-0.4,0-0.9,0.1-1.3c0.1-0.4,0.2-0.8,0.2-1.2c0.2-0.7,0.3-1.4,0.4-1.9     C453.2,654.5,453.4,653.9,453.4,653.9z"/>
		</g>
		<g>
			<path class="st16" d="M417.3,532.9c-0.1-2.5-1.8-8.3-1.8-8.4c-1.8-5.5-6.8-5.6-6.8-5.6h-3.8v-1.5h3.8c0.1,0,6,0.1,8.2,6.6     c0.1,0.3,1.8,6,1.9,8.8L417.3,532.9z"/>
		</g>
		<g>
			<path class="st16" d="M364.5,426c0,0-19.1,8.2-19.8,21.4l0,0.2C354.4,443.2,364.5,426,364.5,426z"/>
		</g>
		<g>
			<path class="st16" d="M464.9,447.2c-1-13-19.8-21.2-19.8-21.2S455.1,442.7,464.9,447.2z"/>
		</g>
		<g>
			<path class="st14" d="M388.9,421.6c-0.6,2.6-1.3,5.1-1.9,7.7c-0.2,0.6-0.3,1.3-0.5,1.9l-0.6,1.9l-1.3,3.8l-5,15l0,0     c-0.2,0.9-0.5,1.7-0.9,2.5c-0.3,0.8-0.7,1.6-1.1,2.3c-0.4,0.8-0.8,1.5-1.2,2.2c-0.4,0.7-0.9,1.4-1.4,2.2c-0.5,0.7-1,1.4-1.6,2     c-0.5,0.7-1.2,1.3-1.7,1.9c-0.6,0.6-1.2,1.2-1.9,1.7c-0.7,0.5-1.3,1.1-2.1,1.5l-1.1,0.7l-1.1,0.6l-2.2,1.3l-4.3,2.5     c-0.7,0.5-1.5,0.8-2.2,1.2l-2.3,1.1c-1.5,0.7-3,1.5-4.6,2.2c1.4-1,2.7-1.9,4.1-2.9l2.1-1.4c0.7-0.5,1.4-1,2.1-1.4l4.3-2.5     l2.2-1.3l1.1-0.6l1-0.7c0.7-0.4,1.3-1,2-1.5c0.6-0.5,1.2-1.1,1.8-1.6c0.6-0.6,1.2-1.2,1.7-1.8c0.5-0.6,1-1.3,1.5-1.9     c0.5-0.7,0.9-1.3,1.3-2.1c0.4-0.7,0.8-1.4,1.2-2.2c0.4-0.7,0.7-1.5,1-2.2c0.3-0.8,0.6-1.5,0.8-2.3l0,0l0,0l5-15l1.3-3.8l0.6-1.9     c0.2-0.6,0.5-1.2,0.7-1.8C386.8,426.5,387.8,424,388.9,421.6z"/>
		</g>
		<g>
			<path class="st15" d="M341.6,514.7c0,0,6.6,15.4,8.2,54.6c0,0,2,91.2-1.6,104.8l-6.6,12.1C341.6,686.1,333.6,592.7,341.6,514.7z"/>
		</g>
		<g>
			<path class="st4" d="M404.8,536.6c-40.3-0.2-54.4,8.5-54.4,8.5l5.9,108.7l24.2,7.1c7.9,1.8,15.2-3.3,15.2-3.3h9.2h0h9.2     c0,0,7.3,5.1,15.2,3.3l24.2-7.1l5.9-108.7C459.2,545.2,445.1,536.4,404.8,536.6"/>
		</g>
		<g>
			<ellipse class="st14" cx="381.5" cy="707.5" rx="1.5" ry="10.8"/>
		</g>
		<g>
			<ellipse class="st14" cx="357.8" cy="704.1" rx="1.3" ry="9.3"/>
		</g>
		<g>
			<path class="st14" d="M345.2,484l0.4,0.4c0.1,0.1,0.3,0.2,0.4,0.3c0.3,0.2,0.6,0.4,0.9,0.5c0.6,0.3,1.3,0.6,2,0.8l-0.2,0l3.1-1.9     c1-0.7,2.1-1.2,3.2-1.8c1.1-0.6,2.2-1.1,3.3-1.6c1.1-0.5,2.3-0.9,3.4-1.3l3.5-1.1c1.2-0.4,2.3-0.6,3.5-0.9     c1.2-0.3,2.4-0.6,3.6-0.8l3.6-0.7l3.6-0.6c1.2-0.2,2.4-0.3,3.6-0.5c2.4-0.3,4.8-0.5,7.3-0.7c2.4-0.2,4.8-0.3,7.3-0.4     c2.4-0.1,4.9-0.1,7.3,0l0,1.5h0l0-1.5c2.5-0.1,4.9-0.1,7.3,0c2.4,0.1,4.9,0.2,7.3,0.4c2.4,0.2,4.8,0.4,7.3,0.7     c1.2,0.2,2.4,0.3,3.6,0.5l3.6,0.6l3.6,0.7c1.2,0.2,2.4,0.5,3.6,0.8c1.2,0.3,2.4,0.6,3.5,0.9l3.5,1.1c1.1,0.4,2.3,0.8,3.4,1.3     c1.1,0.4,2.2,1,3.3,1.6c1.1,0.6,2.2,1.1,3.2,1.8l3.1,1.9l-0.2,0c0.7-0.2,1.3-0.5,2-0.8c0.3-0.2,0.6-0.3,0.9-0.6     c0.1-0.1,0.3-0.2,0.4-0.3l0.4-0.4l-0.3,0.4c-0.1,0.1-0.3,0.3-0.4,0.4c-0.3,0.3-0.6,0.5-0.9,0.7c-0.6,0.4-1.2,0.7-1.9,1l-0.1,0     l-0.1-0.1l-3.2-1.6c-1-0.6-2.2-1-3.3-1.4c-1.1-0.4-2.2-0.9-3.4-1.3c-1.1-0.4-2.2-0.8-3.4-1.2l-3.4-1c-1.1-0.4-2.3-0.6-3.5-0.9     c-1.2-0.3-2.3-0.6-3.5-0.8l-3.5-0.7l-3.6-0.6c-1.2-0.2-2.4-0.3-3.6-0.5c-2.4-0.3-4.8-0.5-7.2-0.7c-2.4-0.2-4.8-0.3-7.2-0.4     c-2.4-0.1-4.8-0.1-7.2,0l0-1.5h0l0,1.5c-2.4-0.1-4.8-0.1-7.2,0c-2.4,0.1-4.8,0.2-7.2,0.4c-2.4,0.2-4.8,0.4-7.2,0.7     c-1.2,0.2-2.4,0.3-3.6,0.5l-3.6,0.6l-3.5,0.7c-1.2,0.2-2.3,0.5-3.5,0.8c-1.2,0.3-2.3,0.6-3.5,0.9l-3.4,1     c-1.1,0.4-2.2,0.9-3.4,1.2c-1.2,0.3-2.3,0.8-3.4,1.3c-1.1,0.5-2.3,0.9-3.3,1.4l-3.2,1.6l-0.1,0.1l-0.1,0c-0.7-0.3-1.3-0.6-1.9-1     c-0.3-0.2-0.6-0.4-0.9-0.7c-0.1-0.1-0.3-0.2-0.4-0.4L345.2,484z"/>
		</g>
		<g>
			<path class="st7" d="M486.6,521.5c-11.1-7.8-16-6.8-16-6.8c-0.9,6.6,9.9,9.9,9.9,9.9c5.1,2.1,5.8-0.5,5.8-0.5     C486.7,523.3,486.7,522.4,486.6,521.5z"/>
		</g>
		<g>
			<path class="st14" d="M486.6,521.5c-0.7-4.9-8.1-10.5-8.1-10.5c-5.1-4.3-6.5-2-6.5-2l-5.7-3v6.1l4.3,2.7     C470.6,514.7,475.5,513.7,486.6,521.5z"/>
		</g>
		<g>
			<path class="st7" d="M323,521.5c-0.1,0.9,0,1.8,0.4,2.6c0,0,0.6,2.6,5.8,0.5c0,0,10.8-3.3,9.9-9.9     C339,514.7,334.1,513.7,323,521.5z"/>
		</g>
		<g>
			<path class="st14" d="M331.1,510.9c0,0-7.4,5.6-8.1,10.5c11.1-7.8,16-6.8,16-6.8l4.3-2.7v-6.1l-5.7,3     C337.6,508.9,336.2,506.6,331.1,510.9z"/>
		</g>
		<g>
			<path class="st6" d="M351.9,716.6l-2.8-4.6l0.4-10l-3.4,13.7c0,0-1.2,5.6-5.6,2.7c0,0-4.4-2.9-6.2-8.2c0.1,0.8,0.2,1.6,0.3,2.4     c0,0,0.6,14.8,19.9,22.8C350.4,733.6,351.9,716.6,351.9,716.6z"/>
		</g>
		<g>
			<path class="st6" d="M469.2,718.3c-4.4,2.9-5.6-2.7-5.6-2.7l-3.4-13.7l0.4,10l-2.8,4.6c0,0,1.5,17-2.6,18.7     c19.3-8,19.9-22.8,19.9-22.8c0.1-0.8,0.2-1.6,0.3-2.4C473.6,715.5,469.2,718.3,469.2,718.3z"/>
		</g>
		<g>
			<path class="st15" d="M457.7,716.6c-5.6,10.5-23.4,6.7-23.4,6.7c-4.6-2.8-8.9-2.6-8.9-2.6h-20.6h0h-20.6c0,0-4.3-0.2-8.9,2.6     c0,0-17.8,3.8-23.4-6.7c0,0-1.5,17,2.6,18.7c2.6,1.1,5.6,2,8.9,2.8c0,0,17.3,5.1,41.5,4.9c24.2,0.2,41.5-4.9,41.5-4.9     c3.3-0.8,6.3-1.8,8.9-2.8C459.2,733.6,457.7,716.6,457.7,716.6z"/>
		</g>
		<g>
			<path class="st14" d="M349.4,702l0.5-1.7c0.2-0.6,0.4-1.1,0.6-1.7c0.3-0.5,0.5-1.1,0.8-1.6c0.3-0.5,0.6-1.1,1-1.6     c0.2-0.3,0.4-0.5,0.6-0.7c0.2-0.2,0.4-0.5,0.6-0.7c0.5-0.4,0.9-0.8,1.5-1.2c0.3-0.2,0.5-0.3,0.8-0.5c0.3-0.1,0.6-0.3,0.9-0.4     c0.3-0.1,0.6-0.2,1-0.3c0.3-0.1,0.6-0.1,1.1-0.1l-0.1,0c1.9-0.1,3.9,0,5.8,0h5.8h11.5h23.1v1.5h0v-1.5h23.1h11.5h5.8     c1.9,0,3.8-0.1,5.8,0l-0.1,0c0.4,0,0.7,0,1.1,0.1c0.3,0.1,0.6,0.1,1,0.3c0.3,0.1,0.6,0.2,0.9,0.4c0.3,0.1,0.6,0.3,0.8,0.5     c0.5,0.3,1,0.7,1.5,1.2c0.2,0.2,0.4,0.5,0.6,0.7c0.2,0.2,0.4,0.5,0.6,0.7c0.4,0.5,0.7,1,1,1.6c0.3,0.5,0.5,1.1,0.8,1.6     c0.2,0.6,0.4,1.1,0.6,1.7l0.5,1.7l-0.6-1.7c-0.2-0.5-0.5-1.1-0.8-1.6c-0.3-0.5-0.6-1-0.9-1.5c-0.3-0.5-0.7-1-1.1-1.4     c-0.2-0.2-0.4-0.4-0.6-0.6c-0.2-0.2-0.4-0.4-0.6-0.6c-0.4-0.4-0.9-0.7-1.4-0.9c-0.3-0.1-0.5-0.3-0.8-0.3     c-0.3-0.1-0.5-0.2-0.8-0.2c-0.3-0.1-0.5-0.1-0.8-0.1c-0.3,0-0.6,0-0.7,0l-0.1,0c-1.9,0.1-3.8,0-5.8,0h-5.8h-11.5h-23.1v-1.5h0     v1.5h-23.1h-11.5h-5.8c-1.9,0-3.8,0.1-5.8,0l-0.1,0c-0.2,0-0.5,0-0.7,0c-0.3,0-0.5,0.1-0.8,0.1c-0.3,0.1-0.5,0.1-0.8,0.2     c-0.3,0.1-0.5,0.2-0.8,0.3c-0.5,0.3-1,0.6-1.4,0.9c-0.2,0.2-0.4,0.4-0.6,0.6c-0.2,0.2-0.4,0.4-0.6,0.6c-0.4,0.4-0.7,0.9-1.1,1.4     c-0.3,0.5-0.6,1-0.9,1.5c-0.3,0.5-0.5,1.1-0.8,1.6L349.4,702z"/>
		</g>
		<g>
			<path class="st14" d="M356.3,653.9c0,0,0.2,0.6,0.4,1.6c0.1,0.5,0.2,1.2,0.4,1.9c0.1,0.4,0.2,0.7,0.2,1.2c0.1,0.4,0,0.8,0.1,1.3     c0.2,3.6,0.5,8.4,0.8,13.2c0.3,4.8,0.6,9.6,0.8,13.2c0,0.5,0.1,0.9,0.1,1.3c0,0.4-0.1,0.8-0.1,1.2c-0.1,0.7-0.1,1.4-0.2,1.9     c-0.1,1.1-0.2,1.7-0.2,1.7s-0.2-0.6-0.4-1.6c-0.1-0.5-0.2-1.2-0.4-1.9c-0.1-0.4-0.2-0.7-0.2-1.2c-0.1-0.4,0-0.8-0.1-1.3     c-0.2-3.6-0.5-8.4-0.8-13.2c-0.3-4.8-0.6-9.6-0.8-13.2c0-0.5-0.1-0.9-0.1-1.3c0-0.4,0.1-0.8,0.1-1.2c0.1-0.7,0.1-1.4,0.2-1.9     C356.2,654.5,356.3,653.9,356.3,653.9z"/>
		</g>
		<g>
			<path class="st15" d="M404.8,484L404.8,484L404.8,484C404.8,484,404.8,484,404.8,484c-0.5,0-55.4-1.6-55,20.3l2.7,29.2     c0,0,0.5,5.6,6.6,4.2c0,0,16.7-3.5,32.5-4.8h0c0.1-2.7,1.9-8.6,1.9-8.6c2-6.1,7.5-6.1,7.5-6.1h3.8h3.8c0,0,5.5,0,7.5,6.1     c0,0,1.8,5.9,1.9,8.6H418c15.7,1.3,32.5,4.8,32.5,4.8c6,1.4,6.6-4.2,6.6-4.2l2.7-29.2C460.2,482.4,405.3,484,404.8,484z"/>
		</g>
		<g>
			<polygon class="st15" points="404.8,484 404.8,484 404.8,484    "/>
		</g>
		<g>
			<path class="st4" d="M416.2,524.3c-2-6.1-7.5-6.1-7.5-6.1h-3.8H401c0,0-5.5,0-7.5,6.1c0,0-1.8,5.9-1.9,8.6h0     c4.6-0.4,9.2-0.5,13.2-0.4c4-0.2,8.5,0,13.2,0.4h0.1C418,530.2,416.2,524.3,416.2,524.3z"/>
		</g>
		<g>
			<path class="st4" d="M404.8,532.5C404.8,532.5,404.8,532.5,404.8,532.5C404.8,532.5,404.8,532.5,404.8,532.5L404.8,532.5z"/>
		</g>
		<g>
			<path class="st15" d="M437.5,641.7c0,4-3.3,7.3-7.3,7.3h-50.8c-4,0-7.3-3.3-7.3-7.3v-61.8c0-4,3.3-7.3,7.3-7.3h50.8     c4,0,7.3,3.3,7.3,7.3V641.7z"/>
		</g>
		<g>
			<path class="st14" d="M445.1,426c0,0,0.7,1.1,1.8,3.1c0.5,1,1.2,2.2,1.9,3.6c0.4,0.7,0.8,1.5,1.2,2.3c0.4,0.8,0.7,1.7,1.1,2.6     c1.5,3.6,3.1,7.9,4.7,12.5c0.8,2.3,1.6,4.7,2.3,7.2c0.4,1.2,0.7,2.5,1.1,3.7c0.3,1.3,0.7,2.5,1,3.8c0.7,2.5,1.3,5.1,1.9,7.5     c0.6,2.5,1.1,5,1.6,7.4c0.5,2.4,0.8,4.7,1.2,6.9c0.4,2.2,0.7,4.3,0.9,6.2c0.3,1.9,0.4,3.7,0.5,5.3c0,1.6,0,3,0.1,4.1     c0,2.3,0,3.6,0,3.6s-0.2-1.3-0.6-3.5c-0.2-1.1-0.4-2.5-0.6-4.1c-0.1-0.8-0.3-1.6-0.5-2.5c-0.2-0.9-0.2-1.8-0.4-2.8     c-0.2-1.9-0.5-4-0.9-6.2c-0.4-2.2-0.7-4.5-1.2-6.9c-0.5-2.4-0.9-4.8-1.6-7.3c-0.6-2.5-1.2-5-1.9-7.5c-0.3-1.2-0.7-2.5-1-3.7     c-0.4-1.2-0.7-2.5-1.1-3.7c-0.7-2.5-1.5-4.8-2.3-7.1c-1.6-4.6-3.2-8.8-4.6-12.4c-0.4-0.9-0.8-1.7-1.1-2.6     c-0.3-0.8-0.6-1.6-0.8-2.4c-0.5-1.5-1-2.8-1.4-3.8C445.6,427.2,445.1,426,445.1,426z"/>
		</g>
		<g>
			<path class="st14" d="M364.5,426c0,0-0.5,1.2-1.3,3.3c-0.4,1.1-0.9,2.4-1.4,3.8c-0.3,0.7-0.5,1.5-0.8,2.4     c-0.3,0.8-0.7,1.7-1.1,2.6c-1.5,3.6-3.1,7.8-4.6,12.4c-0.8,2.3-1.6,4.7-2.3,7.1c-0.4,1.2-0.7,2.5-1.1,3.7c-0.3,1.2-0.7,2.5-1,3.7     c-0.7,2.5-1.3,5-1.9,7.5c-0.6,2.5-1.1,4.9-1.6,7.3c-0.5,2.4-0.8,4.7-1.2,6.9c-0.4,2.2-0.7,4.3-0.9,6.2c-0.1,1-0.2,1.9-0.4,2.8     c-0.2,0.9-0.4,1.7-0.5,2.5c-0.2,1.6-0.4,2.9-0.6,4.1c-0.4,2.3-0.6,3.5-0.6,3.5s0-1.3,0-3.6c0-1.1,0-2.5,0.1-4.1     c0-1.6,0.2-3.4,0.5-5.3c0.2-1.9,0.5-4,0.9-6.2c0.4-2.2,0.7-4.6,1.2-6.9c0.5-2.4,0.9-4.9,1.6-7.4c0.6-2.5,1.2-5,1.9-7.5     c0.3-1.3,0.7-2.5,1-3.8c0.4-1.2,0.7-2.5,1.1-3.7c0.7-2.5,1.5-4.9,2.3-7.2c1.6-4.6,3.2-8.9,4.7-12.5c0.4-0.9,0.7-1.8,1.1-2.6     c0.4-0.8,0.8-1.5,1.2-2.3c0.7-1.4,1.4-2.6,1.9-3.6C363.8,427.1,364.5,426,364.5,426z"/>
		</g>
	</g>
	<g>
		<g>
			<path class="st17" d="M479.3,309c-2.7-15.6-3.9-39.1-3.9-39.1c3.4-39.3-0.3-114.6-0.3-114.6c12.9-52.6-15.2-86-15.2-86l-33.6-13     l-21.4-2l-21.4,2l-33.6,13c0,0-28.1,33.4-15.2,86c0,0-3.7,75.3-0.3,114.6c0,0-1.2,23.5-3.9,39.1c0,0-5.2,36.2,17.6,62.8h57h57     C484.6,345.1,479.3,309,479.3,309z M456.4,181c0,0-0.9,5-6.7,3.8c0,0-21.4-4-44.9-4c-23.5,0-44.9,4-44.9,4     c-5.8,1.3-6.7-3.8-6.7-3.8l-10.4-54.2c3.2-4.3,6.9-7.9,11-10.9c10.7-20.1,24.5-33.4,24.5-33.4c4.3,2.3,14.6,15.5,17.2,18.9     c5.6-0.6,9.3-0.6,9.3-0.6s3.8,0,9.7,0.6c2.8-3.8,12.6-16.7,16.7-18.9c0,0,14.3,13.1,25.1,33.8c3.9,2.9,7.4,6.3,10.4,10.4     L456.4,181z"/>
		</g>
		<g>
			<path class="st18" d="M404.8,391.3c-15.3,0.1-28.4-2.3-28.4-2.3l-30.7-14.1h-0.6v-11.7l31.3,7.2l28.4-7.2l28.4,7.2l31.3-7.2v11.7     h-0.6L433.2,389C433.2,389,420,391.4,404.8,391.3z"/>
		</g>
		<g>
			<path class="st19" d="M431.2,83.1c0,0-0.2-0.4-0.5-1.1c-0.1-0.4-0.3-0.8-0.5-1.3c-0.1-0.2-0.2-0.5-0.3-0.8     c-0.1-0.3-0.1-0.6-0.2-0.9c-0.5-2.5-1.1-5.9-1.7-9.2c-0.6-3.4-1.3-6.7-1.7-9.2c0-0.3-0.2-0.6-0.2-0.9c0-0.3,0-0.6,0-0.8     c0-0.5,0-1,0-1.4c0-0.8,0-1.2,0-1.2s0.2,0.4,0.5,1.1c0.1,0.4,0.3,0.8,0.5,1.3c0.1,0.2,0.2,0.5,0.3,0.8c0.1,0.3,0.1,0.6,0.2,0.9     c0.5,2.5,1.1,5.9,1.7,9.2c0.6,3.4,1.3,6.7,1.7,9.2c0,0.3,0.2,0.6,0.2,0.9c0,0.3,0,0.6,0,0.8c0,0.5,0,1,0,1.4     C431.2,82.7,431.2,83.1,431.2,83.1z"/>
		</g>
		<g>
			<polygon class="st12" points="458.5,72.7 455.4,80.9 466.7,93.6 468.7,91.4 462.1,73.8    "/>
		</g>
		<g>
			<path class="st4" d="M404.8,59.5c-1.2,0-2.2,1-2.2,2.2h4.4C407,60.5,406,59.5,404.8,59.5z"/>
		</g>
		<g>
			<path class="st19" d="M466.7,93.6c0,0,0.2,0.5,0.5,1.5c0.2,0.5,0.3,1,0.6,1.7c0.1,0.3,0.2,0.7,0.3,1.1c0.1,0.4,0.1,0.8,0.2,1.2     c0.3,1.7,0.5,3.6,0.8,5.7c0.1,1,0.2,2.1,0.3,3.3c0.1,1.1,0.2,2.2,0.3,3.4c0,1.1,0.1,2.3,0.1,3.4c0,1.1,0.1,2.2,0.1,3.3     c0,1.1,0,2.1-0.1,3.1c0,1,0,1.9-0.1,2.7c-0.1,0.4,0,0.8-0.1,1.2c-0.1,0.4-0.2,0.7-0.3,1.1c-0.2,0.7-0.3,1.3-0.4,1.7     c-0.3,1-0.4,1.5-0.4,1.5s0-0.6-0.1-1.6c0-0.5,0-1.1-0.1-1.8c0-0.3,0-0.7,0-1.1c0-0.4,0.1-0.8,0.1-1.2c0.1-0.8,0.1-1.7,0.1-2.7     c0-1,0-2,0.1-3c0-1-0.1-2.1-0.1-3.2c0-1.1-0.1-2.2-0.1-3.3c-0.1-1.1-0.2-2.2-0.3-3.3c-0.1-1.1-0.2-2.2-0.3-3.2     c-0.3-2.1-0.5-4-0.8-5.7c0-0.4-0.2-0.8-0.2-1.2c0-0.4,0-0.8,0-1.1c0-0.7,0-1.3-0.1-1.8C466.7,94.1,466.7,93.6,466.7,93.6z"/>
		</g>
		<g>
			<path class="st19" d="M433.9,389h-1.4v-18.8l0.1-0.2c30.6-39.3,33.4-74.9,33.4-75.3l-3.1-43l1.4-0.1l3.1,43.1     c0,0.5-2.8,36.3-33.5,75.9V389z"/>
		</g>
		<g>
			
				<rect x="432.9" y="182.5" transform="matrix(1 4.355810e-03 -4.355810e-03 1 1.2084 -1.8858)" class="st19" width="1.4" height="187.9"/>
		</g>
		<g>
			<path class="st19" d="M465.1,363.4l-1.3-0.4c10.6-30.8,10.9-92.5,10.9-93.1l1.4,0C476.1,270.5,475.8,332.4,465.1,363.4z"/>
		</g>
		<g>
			<path class="st12" d="M470.3,176.6l5.9,9.6l8.1-2.8C484.3,183.4,481.3,174.2,470.3,176.6z"/>
		</g>
		<g>
			<path class="st20" d="M473.5,273.2c-0.1,1.9-1.7,3.3-3.5,3.2l0,0c-1.9-0.1-3.3-1.7-3.2-3.5l0.3-6.5c0.1-1.9,1.7-3.3,3.5-3.2l0,0     c1.9,0.1,3.3,1.7,3.2,3.5L473.5,273.2z"/>
		</g>
		<g>
			<circle class="st21" cx="470.4" cy="266.8" r="2.3"/>
		</g>
		<g>
			<circle class="st21" cx="470.1" cy="272.9" r="2.3"/>
		</g>
		<g>
			
				<rect x="462.1" y="253.9" transform="matrix(0.7558 0.6548 -0.6548 0.7558 281.4787 -245.6449)" class="st19" width="15.9" height="1.4"/>
		</g>
		<g>
			
				<rect x="465.2" y="297.8" transform="matrix(0.7077 0.7065 -0.7065 0.7077 348.3753 -245.1193)" class="st19" width="10.5" height="1.4"/>
		</g>
		<g>
			<path class="st19" d="M378.3,82.6c0,0,0-0.4,0-1.2c0-0.4,0-0.8,0-1.3c0-0.3,0-0.5,0-0.8c0-0.3,0.1-0.6,0.2-0.9     c0.5-2.5,1.1-5.8,1.7-9c0.6-3.3,1.3-6.6,1.7-9c0.1-0.3,0.1-0.6,0.2-0.9c0.1-0.3,0.2-0.5,0.3-0.8c0.2-0.5,0.4-0.9,0.5-1.2     c0.3-0.7,0.5-1.1,0.5-1.1s0,0.4,0,1.2c0,0.4,0,0.8,0,1.3c0,0.3,0,0.5,0,0.8c0,0.3-0.1,0.6-0.2,0.9c-0.5,2.5-1.1,5.8-1.7,9     c-0.6,3.3-1.3,6.6-1.7,9c-0.1,0.3-0.1,0.6-0.2,0.9c-0.1,0.3-0.2,0.5-0.3,0.8c-0.2,0.5-0.4,0.9-0.5,1.2     C378.5,82.2,378.3,82.6,378.3,82.6z"/>
		</g>
		<g>
			<polygon class="st12" points="351.1,72.7 354.2,80.9 342.8,93.6 340.8,91.4 347.5,73.8    "/>
		</g>
		<g>
			<g>
				<path class="st4" d="M378.3,82.6c0,0-13.8,13.3-24.5,33.4c13.7-10,31.2-13.4,41.6-14.5C392.9,98.1,382.6,84.8,378.3,82.6z"/>
			</g>
			<g>
				<path class="st22" d="M378.3,85.7c0,0-13.8,10.1-24.5,30.2c13.7-10,31.2-13.4,41.6-14.5C392.9,98.1,382.6,88,378.3,85.7z"/>
			</g>
		</g>
		<g>
			<g>
				<path class="st4" d="M431.1,82.6c0,0,14.3,12.1,24.8,33.1c-13.8-9.9-31.3-13.1-41.8-14.1C416.7,98.3,426.8,84.9,431.1,82.6z"/>
			</g>
			<g>
				<path class="st22" d="M431.1,85.8c0,0,14.3,10.6,25.2,30.6c-13.8-9.9-31.7-13.7-42.2-14.7C416.7,98.3,426.9,88.1,431.1,85.8z"/>
			</g>
		</g>
		<g>
			<path class="st4" d="M456.3,116.4c0.2,0.4,0.4,0.7,0.6,1.1C456.7,117.1,456.5,116.8,456.3,116.4c-13.6-10.2-31.1-13.7-41.8-14.9     c-0.5,0.7-0.8,1.1-0.8,1.1s0.3-0.4,0.8-1.1c-5.9-0.7-9.7-0.6-9.7-0.6s-3.6,0-9.3,0.6c0.4,0.5,0.6,0.8,0.6,0.8s-0.2-0.3-0.6-0.8     c-10.5,1.1-27.9,4.5-41.6,14.5c-0.4,0.8-0.8,1.5-1.2,2.3c0.4-0.8,0.8-1.5,1.2-2.3c-4.1,3-7.9,6.6-11,10.9l10.4,54.2     c0,0,0.9,5,6.7,3.8c0,0,21.4-4,44.9-4c23.5,0,44.9,4,44.9,4c5.8,1.3,6.7-3.8,6.7-3.8l10.4-54.2     C463.7,122.7,460.2,119.3,456.3,116.4z"/>
		</g>
		<g>
			<path class="st22" d="M408.4,302.2v1.8c0,0.4,0.3,0.9,0.7,1.1l3.2,1.8c0.4,0.2,0.9,0.2,1.3,0l3.2-1.8c0.4-0.2,0.7-0.7,0.7-1.1     v-1.8l-4.5,2L408.4,302.2z"/>
		</g>
		<g>
			<path class="st4" d="M416.7,299.2l-3.2-1.8c-0.4-0.2-1-0.2-1.3,0l-3.2,1.8c-0.4,0.2-0.7,0.7-0.7,1.1v1.8l4.5,2l4.5-2v-1.8     C417.4,300,417.1,299.4,416.7,299.2z"/>
		</g>
		<g>
			<path class="st22" d="M408.4,315.7v1.8c0,0.4,0.3,0.9,0.7,1.1l3.2,1.8c0.4,0.2,0.9,0.2,1.3,0l3.2-1.8c0.4-0.2,0.7-0.7,0.7-1.1     v-1.8l-4.5,2L408.4,315.7z"/>
		</g>
		<g>
			<path class="st4" d="M416.7,312.8l-3.2-1.8c-0.4-0.2-1-0.2-1.3,0l-3.2,1.8c-0.4,0.2-0.7,0.7-0.7,1.1v1.8l4.5,2l4.5-2v-1.8     C417.4,313.5,417.1,313,416.7,312.8z"/>
		</g>
		<g>
			<path class="st22" d="M408.4,329.3v1.8c0,0.4,0.3,0.9,0.7,1.1l3.2,1.8c0.4,0.2,0.9,0.2,1.3,0l3.2-1.8c0.4-0.2,0.7-0.7,0.7-1.1     v-1.8l-4.5,2L408.4,329.3z"/>
		</g>
		<g>
			<path class="st4" d="M416.7,326.3l-3.2-1.8c-0.4-0.2-1-0.2-1.3,0l-3.2,1.8c-0.4,0.2-0.7,0.7-0.7,1.1v1.8l4.5,2l4.5-2v-1.8     C417.4,327,417.1,326.5,416.7,326.3z"/>
		</g>
		<g>
			<path class="st22" d="M408.4,342.8v1.8c0,0.4,0.3,0.9,0.7,1.1l3.2,1.8c0.4,0.2,0.9,0.2,1.3,0l3.2-1.8c0.4-0.2,0.7-0.7,0.7-1.1     v-1.8l-4.5,2L408.4,342.8z"/>
		</g>
		<g>
			<path class="st4" d="M416.7,339.9l-3.2-1.8c-0.4-0.2-1-0.2-1.3,0l-3.2,1.8c-0.4,0.2-0.7,0.7-0.7,1.1v1.8l4.5,2l4.5-2V341     C417.4,340.6,417.1,340.1,416.7,339.9z"/>
		</g>
		<g>
			<path class="st4" d="M416.7,353.4l-3.2-1.8c-0.4-0.2-1-0.2-1.3,0l-3.2,1.8c-0.4,0.2-0.7,0.7-0.7,1.1v1.8l4.5,2l4.5-2v-1.8     C417.4,354.1,417.1,353.6,416.7,353.4z"/>
		</g>
		<g>
			<path class="st22" d="M408.4,356.4v1.8c0,0.4,0.3,0.9,0.7,1.1l3.2,1.8c0.4,0.2,0.9,0.2,1.3,0l3.2-1.8c0.4-0.2,0.7-0.7,0.7-1.1     v-1.8l-4.5,2L408.4,356.4z"/>
		</g>
		<g>
			<path class="st22" d="M392.2,302.2v1.8c0,0.4,0.3,0.9,0.7,1.1l3.2,1.8c0.4,0.2,0.9,0.2,1.3,0l3.2-1.8c0.4-0.2,0.7-0.7,0.7-1.1     v-1.8l-4.5,2L392.2,302.2z"/>
		</g>
		<g>
			<path class="st4" d="M400.5,299.2l-3.2-1.8c-0.4-0.2-0.9-0.2-1.3,0l-3.2,1.8c-0.4,0.2-0.7,0.7-0.7,1.1v1.8l4.5,2l4.5-2v-1.8     C401.2,300,400.9,299.4,400.5,299.2z"/>
		</g>
		<g>
			<path class="st22" d="M392.2,315.7v1.8c0,0.4,0.3,0.9,0.7,1.1l3.2,1.8c0.4,0.2,0.9,0.2,1.3,0l3.2-1.8c0.4-0.2,0.7-0.7,0.7-1.1     v-1.8l-4.5,2L392.2,315.7z"/>
		</g>
		<g>
			<path class="st4" d="M400.5,312.8l-3.2-1.8c-0.4-0.2-0.9-0.2-1.3,0l-3.2,1.8c-0.4,0.2-0.7,0.7-0.7,1.1v1.8l4.5,2l4.5-2v-1.8     C401.2,313.5,400.9,313,400.5,312.8z"/>
		</g>
		<g>
			<path class="st22" d="M392.2,329.3v1.8c0,0.4,0.3,0.9,0.7,1.1l3.2,1.8c0.4,0.2,0.9,0.2,1.3,0l3.2-1.8c0.4-0.2,0.7-0.7,0.7-1.1     v-1.8l-4.5,2L392.2,329.3z"/>
		</g>
		<g>
			<path class="st4" d="M400.5,326.3l-3.2-1.8c-0.4-0.2-0.9-0.2-1.3,0l-3.2,1.8c-0.4,0.2-0.7,0.7-0.7,1.1v1.8l4.5,2l4.5-2v-1.8     C401.2,327,400.9,326.5,400.5,326.3z"/>
		</g>
		<g>
			<path class="st22" d="M392.2,342.8v1.8c0,0.4,0.3,0.9,0.7,1.1l3.2,1.8c0.4,0.2,0.9,0.2,1.3,0l3.2-1.8c0.4-0.2,0.7-0.7,0.7-1.1     v-1.8l-4.5,2L392.2,342.8z"/>
		</g>
		<g>
			<path class="st4" d="M400.5,339.9l-3.2-1.8c-0.4-0.2-0.9-0.2-1.3,0l-3.2,1.8c-0.4,0.2-0.7,0.7-0.7,1.1v1.8l4.5,2l4.5-2V341     C401.2,340.6,400.9,340.1,400.5,339.9z"/>
		</g>
		<g>
			<path class="st22" d="M392.2,356.4v1.8c0,0.4,0.3,0.9,0.7,1.1l3.2,1.8c0.4,0.2,0.9,0.2,1.3,0l3.2-1.8c0.4-0.2,0.7-0.7,0.7-1.1     v-1.8l-4.5,2L392.2,356.4z"/>
		</g>
		<g>
			<path class="st4" d="M400.5,353.4l-3.2-1.8c-0.4-0.2-0.9-0.2-1.3,0l-3.2,1.8c-0.4,0.2-0.7,0.7-0.7,1.1v1.8l4.5,2l4.5-2v-1.8     C401.2,354.1,400.9,353.6,400.5,353.4z"/>
		</g>
		<g>
			<path class="st19" d="M342.8,93.6c0,0,0,0.6,0,1.6c0,0.5,0,1.1-0.1,1.8c0,0.3,0,0.7,0,1.1c0,0.4-0.1,0.8-0.2,1.2     c-0.3,1.7-0.5,3.6-0.8,5.7c-0.1,1-0.2,2.1-0.3,3.2c-0.1,1.1-0.2,2.2-0.3,3.3c0,1.1-0.1,2.2-0.1,3.3c0,1.1-0.1,2.2-0.1,3.2     c0,1,0,2.1,0.1,3c0,1,0,1.9,0.1,2.7c0,0.4,0.1,0.8,0.1,1.2c0,0.4,0,0.7,0,1.1c0,0.7,0,1.3-0.1,1.8c0,1-0.1,1.6-0.1,1.6     s-0.2-0.5-0.4-1.5c-0.1-0.5-0.3-1.1-0.4-1.7c-0.1-0.3-0.2-0.7-0.3-1.1c-0.1-0.4-0.1-0.8-0.1-1.2c-0.1-0.9-0.1-1.8-0.1-2.7     c0-1,0-2-0.1-3.1c0-1.1,0.1-2.2,0.1-3.3c0-1.1,0.1-2.2,0.1-3.4c0.1-1.1,0.2-2.3,0.3-3.4c0.1-1.1,0.2-2.2,0.3-3.3     c0.3-2.1,0.5-4.1,0.8-5.7c0.1-0.4,0.1-0.8,0.2-1.2c0.1-0.4,0.2-0.7,0.3-1.1c0.2-0.7,0.4-1.2,0.6-1.7     C342.6,94.1,342.8,93.6,342.8,93.6z"/>
		</g>
		<g>
			<path class="st19" d="M377,389h-1.4v-18.4c-30.7-39.6-33.5-75.5-33.5-75.8l3.1-43.2l1.4,0.1l-3.1,43.1c0,0.3,2.8,35.9,33.4,75.2     l0.1,0.2V389z"/>
		</g>
		<g>
			
				<rect x="282.1" y="275.8" transform="matrix(3.666012e-03 1 -1 3.666012e-03 651.1009 -100.5508)" class="st19" width="187.9" height="1.4"/>
		</g>
		<g>
			<path class="st19" d="M344.4,363.4c-10.6-31-11-93-11-93.6l1.4,0c0,0.6,0.3,62.3,10.9,93.1L344.4,363.4z"/>
		</g>
		<g>
			<path class="st12" d="M339.2,176.6l-5.9,9.6l-8.1-2.8C325.2,183.4,327.9,173.6,339.2,176.6z"/>
		</g>
		<g>
			
				<rect x="338.8" y="246.6" transform="matrix(0.6545 0.7561 -0.7561 0.6545 309.788 -168.697)" class="st19" width="1.4" height="15.9"/>
		</g>
		<g>
			
				<rect x="338.4" y="293.3" transform="matrix(0.7073 0.7069 -0.7069 0.7073 310.2763 -152.3567)" class="st19" width="1.4" height="10.5"/>
		</g>
		<g>
			<polygon class="st19" points="457.7,258.2 449.9,255.3 359.7,255.3 351.8,258.2 351.4,256.9 359.6,253.9 450.1,253.9      458.2,256.9    "/>
		</g>
		<g>
			<path class="st4" d="M468.5,129.4c0,0,5,97.9-8.7,136.7C459.8,266.1,449.1,243.3,468.5,129.4z"/>
		</g>
		<g>
			<path class="st4" d="M341,129.4c0,0-5,97.9,8.7,136.7C349.7,266.1,360.4,243.3,341,129.4z"/>
		</g>
		<g>
			<path class="st22" d="M442.3,275.3L442.3,275.3c-0.5-6.6-8.4-12.7-8.4-12.7s-7.9,6.1-8.4,12.7h0c-0.6,0.7-1,1.6-1,2.5v6.6     c0,1.2,0.8,2.6,1.9,3.2l5.7,3.3c0.5,0.3,1.2,0.5,1.9,0.5c0.7,0,1.3-0.2,1.9-0.5l5.7-3.3c1.1-0.6,1.9-2,1.9-3.2v-6.6     C443.3,276.9,442.9,276,442.3,275.3z"/>
		</g>
		<g>
			<path class="st22" d="M367.3,275.3L367.3,275.3c0.5-6.6,8.4-12.7,8.4-12.7s7.9,6.1,8.4,12.7h0c0.6,0.7,1,1.6,1,2.5v6.6     c0,1.2-0.8,2.6-1.9,3.2l-5.7,3.3c-0.5,0.3-1.2,0.5-1.9,0.5c-0.7,0-1.3-0.2-1.9-0.5l-5.7-3.3c-1.1-0.6-1.9-2-1.9-3.2v-6.6     C366.3,276.9,366.7,276,367.3,275.3z"/>
		</g>
		<g>
			<path class="st4" d="M425.9,277.8c0-0.7,0.5-1.7,1.2-2l5.7-3.3c0.6-0.4,1.7-0.4,2.3,0l5.7,3.3c0.6,0.4,1.2,1.3,1.2,2v6.6     c0,0.7-0.5,1.7-1.2,2l-5.7,3.3c-0.6,0.4-1.7,0.4-2.3,0l-5.7-3.3c-0.6-0.4-1.2-1.3-1.2-2V277.8z"/>
		</g>
		<g>
			<path class="st4" d="M383.7,277.8c0-0.7-0.5-1.7-1.2-2l-5.7-3.3c-0.6-0.4-1.7-0.4-2.3,0l-5.7,3.3c-0.6,0.4-1.2,1.3-1.2,2v6.6     c0,0.7,0.5,1.7,1.2,2l5.7,3.3c0.6,0.4,1.7,0.4,2.3,0l5.7-3.3c0.6-0.4,1.2-1.3,1.2-2V277.8z"/>
		</g>
		<g>
			<path class="st18" d="M471.1,169.4l-0.8,7.2l14,6.8C484.3,183.4,486.8,174.6,471.1,169.4z"/>
		</g>
		<g>
			<path class="st18" d="M338.4,169.4l0.8,7.2l-14,6.8C325.2,183.4,322.7,174.6,338.4,169.4z"/>
		</g>
	</g>
	<g>
		<g>
			<rect x="116.6" y="611.7" class="st23" width="103.6" height="45.8"/>
		</g>
		<g>
			<polygon class="st4" points="157.8,190.3 72.4,186.5 156.8,154.8 159.2,161.2 106.1,181.1 158.1,183.4    "/>
		</g>
		<g>
			<polygon class="st4" points="153,231.1 62.9,170.1 159.2,206.8 156.7,213.2 115.6,197.5 156.8,225.4    "/>
		</g>
		<g>
			<path class="st7" d="M168.4,90.4c-88,0.1-101,32.9-101,32.9V57.4h100.7l100.9,0v65.8C269,123.3,256.4,90.5,168.4,90.4z"/>
			<path class="st7" d="M270.2,129.3l-2.2-5.6c-0.1-0.3-13.6-32.1-99.6-32.2c-85.9,0.1-99.8,31.9-99.9,32.2l-2.2,5.4l0-72.8l203.9,0     V129.3z M68.6,58.6v60.5c6.3-8.8,28.9-29.8,99.8-29.9c70.8,0.1,93.2,21,99.5,29.9V58.6L68.6,58.6z"/>
		</g>
		<g>
			<rect x="79.8" y="385.4" class="st23" width="177.2" height="237.1"/>
		</g>
		<g>
			<path class="st4" d="M286.7,208.9c0,6.3-5.7,11.4-12.7,11.4h-19.8c-7,0-12.7-5.1-12.7-11.4V141c0-6.3,5.7-11.4,12.7-11.4H274     c7,0,12.7,5.1,12.7,11.4V208.9z"/>
		</g>
		<g>
			<rect x="116.6" y="692.6" class="st7" width="103.6" height="19.9"/>
			<path class="st7" d="M221.4,713.6H115.5v-22.2h105.9V713.6z M117.7,711.4h101.3v-17.6H117.7V711.4z"/>
		</g>
		<g>
			<ellipse class="st7" cx="222.4" cy="693.4" rx="2.2" ry="53.8"/>
			<path class="st7" d="M222.4,748.4c-1.3,0-2,0-2.7-16.8c-0.4-10.2-0.6-23.7-0.6-38.1c0-14.4,0.2-27.9,0.6-38.1     c0.7-16.9,1.4-16.9,2.7-16.9c1.3,0,2,0,2.7,16.9c0.4,10.2,0.6,23.7,0.6,38.1c0,14.4-0.2,27.9-0.6,38.1     C224.4,748.4,223.7,748.4,222.4,748.4z M222.4,647.2c-0.6,8.8-1.1,25.2-1.1,46.2c0,21,0.5,37.4,1.1,46.2     c0.6-8.8,1.1-25.2,1.1-46.2C223.5,672.5,223,656,222.4,647.2z"/>
		</g>
		<g>
			<rect x="86.3" y="627.4" class="st4" width="164.2" height="9.7"/>
		</g>
		<g>
			<path class="st21" d="M253.7,632.2c0,5.3-4.3,9.7-9.7,9.7h-20.7c-5.3,0-9.7-4.3-9.7-9.7l0,0c0-5.3,4.3-9.7,9.7-9.7H244     C249.3,622.6,253.7,626.9,253.7,632.2L253.7,632.2z"/>
		</g>
		<g>
			<polygon class="st4" points="178.7,190.3 178.4,183.5 230.4,181.2 177.3,161.2 179.7,154.8 264,186.5    "/>
		</g>
		<g>
			<polygon class="st4" points="183.5,231.1 179.6,225.4 220.8,197.5 179.7,213.2 177.3,206.8 273.6,170.1    "/>
		</g>
		<g>
			<rect x="134.5" y="131.8" class="st4" width="67.6" height="20.5"/>
		</g>
		<g>
			<path class="st4" d="M49.8,208.9c0,6.3,5.7,11.4,12.7,11.4h19.8c7,0,12.7-5.1,12.7-11.4V141c0-6.3-5.7-11.4-12.7-11.4H62.5     c-7,0-12.7,5.1-12.7,11.4V208.9z"/>
		</g>
		<g>
			<ellipse class="st7" cx="114.1" cy="693.4" rx="2.2" ry="53.8"/>
			<path class="st7" d="M114.1,748.4c-1.3,0-2,0-2.7-16.8c-0.4-10.2-0.6-23.7-0.6-38.1s0.2-27.9,0.6-38.1     c0.7-16.9,1.4-16.9,2.7-16.9c1.3,0,2,0,2.7,16.9c0.4,10.2,0.6,23.7,0.6,38.1s-0.2,27.9-0.6,38.1     C116.1,748.4,115.3,748.4,114.1,748.4z M114.1,647.2c-0.6,8.8-1.1,25.2-1.1,46.2s0.5,37.4,1.1,46.2c0.6-8.8,1.1-25.2,1.1-46.2     S114.6,656,114.1,647.2z"/>
		</g>
		<g>
			<path class="st21" d="M82.8,632.2c0,5.3,4.3,9.7,9.7,9.7h20.7c5.3,0,9.7-4.3,9.7-9.7l0,0c0-5.3-4.3-9.7-9.7-9.7H92.5     C87.1,622.5,82.8,626.9,82.8,632.2L82.8,632.2z"/>
		</g>
		<g>
			<path class="st24" d="M168.2,536.2c0,0-37.2-22.9-49.1,17.3c6.6,24.8,12.1,51,12.1,69l37,0h37c0-18.3,5.7-45.1,12.4-70.2     C205.4,513.8,168.2,536.2,168.2,536.2z"/>
		</g>
		<g>
			<path class="st25" d="M258.8,380c1.7-86.5-90.6-56.8-90.6-56.8S76,293.5,77.7,380c0,0-2.8,42.7,19.9,103.6     c0,0,11.9,33.5,21.5,69.9c11.9-40.3,49.1-17.3,49.1-17.3s37.2-22.4,49.4,16.1c9.6-36,21.2-68.7,21.2-68.7     C261.6,422.7,258.8,380,258.8,380z"/>
		</g>
		<g>
			<path class="st4" d="M195.3,585.3c0,0,0.9,0.4,2.4,1.1c0.7,0.4,1.7,0.8,2.6,1.4c0.5,0.3,1,0.6,1.6,0.9c0.3,0.2,0.4,0.4,0.6,0.7     c0.1,0.3,0.3,0.5,0.5,0.8c3,4.2,6.9,9.7,10.9,15.3c3.9,5.6,7.9,11.1,10.9,15.3c0.2,0.3,0.3,0.5,0.6,0.7c0.2,0.2,0.4,0.5,0.4,0.8     c0.1,0.6,0.2,1.2,0.3,1.8c0.2,1.1,0.4,2.1,0.5,2.9c0.2,1.7,0.3,2.7,0.3,2.7s-0.9-0.4-2.4-1.2c-0.7-0.4-1.6-0.9-2.6-1.4     c-0.5-0.3-1-0.6-1.6-0.9c-0.3-0.1-0.5-0.4-0.6-0.7c-0.1-0.3-0.3-0.5-0.5-0.8c-3-4.2-6.9-9.7-10.9-15.3     c-3.9-5.6-7.9-11.1-10.9-15.3c-0.2-0.3-0.3-0.5-0.6-0.7c-0.2-0.2-0.4-0.4-0.5-0.8c-0.1-0.6-0.2-1.2-0.3-1.8     c-0.2-1.1-0.4-2.1-0.5-3C195.4,586.3,195.3,585.3,195.3,585.3z"/>
		</g>
		<g>
			<path class="st4" d="M141.2,585.3c0,0-0.1,1-0.3,2.7c-0.1,0.8-0.3,1.8-0.5,3c-0.1,0.6-0.2,1.2-0.3,1.8c-0.1,0.3-0.2,0.6-0.5,0.8     c-0.2,0.2-0.4,0.5-0.6,0.7c-3,4.2-6.9,9.7-10.9,15.3c-3.9,5.6-7.9,11.1-10.9,15.3c-0.2,0.3-0.4,0.5-0.5,0.8     c-0.1,0.3-0.3,0.5-0.6,0.7c-0.6,0.3-1.1,0.6-1.6,0.9c-1,0.6-1.9,1-2.6,1.4c-1.5,0.8-2.4,1.2-2.4,1.2s0.1-1,0.3-2.7     c0.1-0.8,0.3-1.8,0.5-2.9c0.1-0.6,0.2-1.2,0.3-1.8c0-0.3,0.2-0.6,0.4-0.8c0.2-0.2,0.4-0.5,0.6-0.7c3-4.2,6.9-9.7,10.9-15.3     c3.9-5.6,7.9-11.1,10.9-15.3c0.2-0.3,0.4-0.5,0.5-0.8c0.1-0.3,0.3-0.5,0.6-0.7c0.6-0.3,1.1-0.6,1.6-0.9c1-0.6,1.9-1,2.6-1.4     C140.2,585.6,141.2,585.3,141.2,585.3z"/>
		</g>
		<g>
			<path class="st26" d="M168.4,29.7c0,0-15.6-1.5-18.6,16.1v92.8c0,0,1.9-17.6-9.5,137.8c0,0-8,31.6-12.2,58.1     c0,0-17.8,130.4,40.2,201.8c57.9-71.3,40.2-201.7,40.2-201.7c-4.3-26.5-12.2-58.1-12.2-58.1c-11.4-155.4-9.5-137.8-9.5-137.8     V45.9C183.6,28.2,168.4,29.7,168.4,29.7z"/>
		</g>
		<g>
			<path class="st4" d="M189.3,385.7c0,6.3-5.1,11.4-11.4,11.4h-19.4c-6.3,0-11.4-5.1-11.4-11.4v-85.4c0-6.3,5.1-11.4,11.4-11.4     h19.4c6.3,0,11.4,5.1,11.4,11.4V385.7z"/>
		</g>
		<g>
			<path class="st26" d="M264.4,328.6c0,5.7-4.1,10.3-9.3,10.3h-50.7c-5.1,0-9.3-4.6-9.3-10.3l0,0c0-5.7,4.1-10.3,9.3-10.3h50.7     C260.2,318.3,264.4,322.9,264.4,328.6L264.4,328.6z"/>
		</g>
		<g>
			<path class="st26" d="M72.5,328.6c0,5.7,4.1,10.3,9.3,10.3h50.7c5.1,0,9.3-4.6,9.3-10.3l0,0c0-5.7-4.1-10.3-9.3-10.3H81.7     C76.6,318.3,72.5,322.9,72.5,328.6L72.5,328.6z"/>
		</g>
		<g>
			<path class="st4" d="M286.7,660.5c0,6.3-5.7,11.4-12.7,11.4h-19.8c-7,0-12.7-5.1-12.7-11.4v-67.9c0-6.3,5.7-11.4,12.7-11.4H274     c7,0,12.7,5.1,12.7,11.4V660.5z"/>
		</g>
		<g>
			<path class="st4" d="M49.8,660.5c0,6.3,5.7,11.4,12.7,11.4h19.8c7,0,12.7-5.1,12.7-11.4v-67.9c0-6.3-5.7-11.4-12.7-11.4H62.5     c-7,0-12.7,5.1-12.7,11.4V660.5z"/>
		</g>
	</g>
</g>
</svg>
